<svg width="1000" height="1500" viewBox="0 0 1000 1500" fill="none" xmlns="http://www.w3.org/2000/svg"><path fill="#28293D" d="M0 0h1000v1500H0z"/><path d="M651.777 360H346.223C333.95 360 324 369.95 324 382.222V610c0 12.271 9.95 22.221 22.223 22.221h305.554c12.273 0 22.223-9.95 22.223-22.222V382.222C674 369.95 664.05 360 651.777 360zm0 22.222v161.616l-43.795-39.817c-6.582-5.983-16.705-5.744-22.994.551l-44.323 44.316-87.393-104.389c-6.606-7.889-18.706-7.966-25.411-.172l-81.638 94.878V382.222h305.554zm-94.443 58.333c0-16.878 13.676-30.556 30.554-30.556s30.556 13.678 30.556 30.556-13.677 30.555-30.556 30.555c-16.877.001-30.554-13.677-30.554-30.555z" fill="#fff"/><path d="M215.248 737.221v-45.12h5.056l25.856 34.112v-34.112h6.144v45.12h-4.928l-25.984-34.24v34.24h-6.144zm60.427.576c-3.158 0-5.888-.661-8.192-1.984-2.304-1.322-4.096-3.178-5.376-5.568-1.238-2.432-1.856-5.312-1.856-8.64 0-3.328.618-6.186 1.856-8.576 1.28-2.432 3.072-4.309 5.376-5.632 2.304-1.322 5.034-1.984 8.192-1.984 3.072 0 5.76.662 8.064 1.984 2.304 1.323 4.096 3.2 5.376 5.632 1.28 2.39 1.92 5.248 1.92 8.576 0 3.328-.64 6.208-1.92 8.64-1.28 2.39-3.072 4.246-5.376 5.568-2.304 1.323-4.992 1.984-8.064 1.984zm0-4.992c2.645 0 4.778-.96 6.4-2.88 1.621-1.92 2.432-4.693 2.432-8.32 0-3.626-.811-6.378-2.432-8.256-1.622-1.92-3.755-2.88-6.4-2.88-2.688 0-4.843.96-6.464 2.88-1.622 1.878-2.432 4.63-2.432 8.256 0 3.627.81 6.4 2.432 8.32 1.621 1.92 3.776 2.88 6.464 2.88zm40.136 4.416v-45.12h18.688c4.864 0 8.618 1.216 11.264 3.648 2.645 2.39 3.968 5.76 3.968 10.112 0 4.395-1.323 7.808-3.968 10.24-2.646 2.39-6.4 3.584-11.264 3.584h-12.032v17.536h-6.656zm6.656-22.848h11.072c6.485 0 9.728-2.837 9.728-8.512 0-5.632-3.243-8.448-9.728-8.448h-11.072v16.96zm45.708 23.424c-3.158 0-5.888-.661-8.192-1.984-2.304-1.322-4.096-3.178-5.376-5.568-1.238-2.432-1.856-5.312-1.856-8.64 0-3.328.618-6.186 1.856-8.576 1.28-2.432 3.072-4.309 5.376-5.632 2.304-1.322 5.034-1.984 8.192-1.984 3.072 0 5.76.662 8.064 1.984 2.304 1.323 4.096 3.2 5.376 5.632 1.28 2.39 1.92 5.248 1.92 8.576 0 3.328-.64 6.208-1.92 8.64-1.28 2.39-3.072 4.246-5.376 5.568-2.304 1.323-4.992 1.984-8.064 1.984zm0-4.992c2.645 0 4.778-.96 6.4-2.88 1.621-1.92 2.432-4.693 2.432-8.32 0-3.626-.811-6.378-2.432-8.256-1.622-1.92-3.755-2.88-6.4-2.88-2.688 0-4.843.96-6.464 2.88-1.622 1.878-2.432 4.63-2.432 8.256 0 3.627.81 6.4 2.432 8.32 1.621 1.92 3.776 2.88 6.464 2.88zm33.563 4.992c-2.56 0-4.949-.32-7.168-.96-2.219-.682-4.075-1.621-5.568-2.816l1.856-4.352a18.935 18.935 0 0 0 5.184 2.56c1.92.598 3.84.896 5.76.896 2.261 0 3.968-.405 5.12-1.216 1.152-.81 1.728-1.898 1.728-3.264 0-1.109-.384-1.962-1.152-2.56-.768-.64-1.92-1.13-3.456-1.472l-6.08-1.216c-5.376-1.109-8.064-3.882-8.064-8.32 0-2.944 1.173-5.29 3.52-7.04 2.347-1.749 5.419-2.624 9.216-2.624 2.176 0 4.245.32 6.208.96 2.005.64 3.669 1.6 4.992 2.88l-1.856 4.352a13.801 13.801 0 0 0-4.416-2.56c-1.664-.597-3.307-.896-4.928-.896-2.219 0-3.904.427-5.056 1.28-1.152.811-1.728 1.92-1.728 3.328 0 2.134 1.408 3.499 4.224 4.096l6.08 1.216c2.773.555 4.864 1.494 6.272 2.816 1.451 1.323 2.176 3.115 2.176 5.376 0 2.987-1.173 5.334-3.52 7.04-2.347 1.664-5.461 2.496-9.344 2.496zm33.056 0c-3.926 0-6.848-1.002-8.768-3.008-1.92-2.005-2.88-4.906-2.88-8.704v-15.104h-6.08v-4.992h6.08v-9.408h6.464v9.408h9.664v4.992h-9.664v14.592c0 2.262.469 3.968 1.408 5.12.981 1.152 2.56 1.728 4.735 1.728.683 0 1.345-.064 1.985-.192.64-.17 1.28-.362 1.92-.576l1.024 4.864c-.64.384-1.536.683-2.688.896a14.23 14.23 0 0 1-3.2.384zm24.406 0c-5.12 0-9.152-1.429-12.096-4.288-2.944-2.901-4.416-6.848-4.416-11.84 0-3.2.64-6.016 1.92-8.448 1.323-2.474 3.136-4.394 5.44-5.76 2.304-1.365 4.949-2.048 7.936-2.048 4.309 0 7.701 1.387 10.176 4.16 2.475 2.731 3.712 6.507 3.712 11.328v2.176H448.96c.469 6.486 3.904 9.728 10.304 9.728 1.792 0 3.541-.277 5.248-.832 1.749-.554 3.392-1.472 4.928-2.752l1.92 4.48c-1.408 1.28-3.221 2.283-5.44 3.008a21.489 21.489 0 0 1-6.72 1.088zm-.96-27.84c-2.688 0-4.821.832-6.4 2.496-1.579 1.664-2.539 3.883-2.88 6.656h17.472c-.128-2.901-.896-5.141-2.304-6.72-1.408-1.621-3.371-2.432-5.888-2.432zm20.679 27.264v-31.232h6.272v5.568c1.621-3.712 4.992-5.781 10.112-6.208l2.112-.128.448 5.504-3.904.384c-5.675.555-8.512 3.478-8.512 8.768v17.344h-6.528zm36.848 0 20.096-45.12h5.504l20.16 45.12h-6.784l-4.736-11.008h-22.848l-4.672 11.008h-6.72zm22.784-37.76-9.024 21.376h18.24l-9.088-21.376h-.128zm35.583 37.76-13.44-31.232h6.976l9.536 23.744 9.792-23.744h6.592l-13.632 31.232h-5.824zm33.457.576c-2.176 0-4.118-.426-5.824-1.28-1.707-.853-3.072-2.005-4.096-3.456-.982-1.45-1.472-3.093-1.472-4.928 0-2.304.576-4.117 1.728-5.44 1.194-1.322 3.136-2.282 5.824-2.88 2.73-.597 6.4-.896 11.008-.896h2.176v-1.664c0-2.432-.512-4.181-1.536-5.248-1.024-1.066-2.71-1.6-5.056-1.6-1.792 0-3.584.278-5.376.832-1.792.512-3.627 1.344-5.504 2.496l-1.984-4.544c1.621-1.152 3.648-2.069 6.08-2.752 2.432-.682 4.757-1.024 6.976-1.024 4.266 0 7.424 1.024 9.472 3.072 2.048 2.006 3.072 5.163 3.072 9.472v19.264h-6.08v-5.184c-.768 1.792-1.963 3.2-3.584 4.224-1.622 1.024-3.563 1.536-5.824 1.536zm1.28-4.608c2.304 0 4.224-.81 5.76-2.432 1.536-1.621 2.304-3.669 2.304-6.144v-1.728h-2.112c-3.115 0-5.568.15-7.36.448-1.75.299-3.008.811-3.776 1.536-.726.683-1.088 1.643-1.088 2.88 0 1.622.554 2.944 1.664 3.968 1.109.982 2.645 1.472 4.608 1.472zm22.535-34.432v-6.72h7.552v6.72h-7.552zm.576 38.464v-31.232h6.464v31.232h-6.464zm25.738.576c-3.413 0-5.973-.96-7.68-2.88-1.664-1.92-2.496-4.736-2.496-8.448v-34.368h6.464v33.984c0 4.224 1.728 6.336 5.184 6.336.512 0 .981-.021 1.408-.064a8.083 8.083 0 0 0 1.408-.256l-.128 5.184c-1.451.342-2.837.512-4.16.512zm19.371 0c-2.176 0-4.118-.426-5.824-1.28-1.707-.853-3.072-2.005-4.096-3.456-.982-1.45-1.472-3.093-1.472-4.928 0-2.304.576-4.117 1.728-5.44 1.194-1.322 3.136-2.282 5.824-2.88 2.73-.597 6.4-.896 11.008-.896h2.176v-1.664c0-2.432-.512-4.181-1.536-5.248-1.024-1.066-2.71-1.6-5.056-1.6-1.792 0-3.584.278-5.376.832-1.792.512-3.627 1.344-5.504 2.496l-1.984-4.544c1.621-1.152 3.648-2.069 6.08-2.752 2.432-.682 4.757-1.024 6.976-1.024 4.266 0 7.424 1.024 9.472 3.072 2.048 2.006 3.072 5.163 3.072 9.472v19.264h-6.08v-5.184c-.768 1.792-1.963 3.2-3.584 4.224-1.622 1.024-3.563 1.536-5.824 1.536zm1.28-4.608c2.304 0 4.224-.81 5.76-2.432 1.536-1.621 2.304-3.669 2.304-6.144v-1.728h-2.112c-3.115 0-5.568.15-7.36.448-1.75.299-3.008.811-3.776 1.536-.726.683-1.088 1.643-1.088 2.88 0 1.622.554 2.944 1.664 3.968 1.109.982 2.645 1.472 4.608 1.472zm39.879 4.608c-2.39 0-4.502-.533-6.336-1.6-1.835-1.066-3.2-2.496-4.096-4.288v5.312h-6.336v-45.12h6.464v18.944c.938-1.706 2.304-3.072 4.096-4.096 1.834-1.024 3.904-1.536 6.208-1.536 2.773 0 5.184.662 7.232 1.984 2.09 1.323 3.69 3.2 4.8 5.632 1.152 2.39 1.728 5.248 1.728 8.576 0 3.328-.576 6.208-1.728 8.64-1.11 2.432-2.71 4.31-4.8 5.632-2.048 1.28-4.459 1.92-7.232 1.92zm-1.6-4.992c2.688 0 4.821-.96 6.4-2.88 1.621-1.92 2.432-4.693 2.432-8.32 0-3.626-.811-6.378-2.432-8.256-1.579-1.92-3.712-2.88-6.4-2.88s-4.843.96-6.464 2.88c-1.579 1.878-2.368 4.63-2.368 8.256 0 3.627.789 6.4 2.368 8.32 1.621 1.92 3.776 2.88 6.464 2.88zm32.82 4.992c-3.413 0-5.973-.96-7.68-2.88-1.664-1.92-2.496-4.736-2.496-8.448v-34.368h6.464v33.984c0 4.224 1.728 6.336 5.184 6.336.512 0 .981-.021 1.408-.064a8.083 8.083 0 0 0 1.408-.256l-.128 5.184c-1.451.342-2.837.512-4.16.512zm23.73 0c-5.12 0-9.152-1.429-12.096-4.288-2.944-2.901-4.416-6.848-4.416-11.84 0-3.2.64-6.016 1.92-8.448 1.323-2.474 3.136-4.394 5.44-5.76 2.304-1.365 4.949-2.048 7.936-2.048 4.309 0 7.701 1.387 10.176 4.16 2.475 2.731 3.712 6.507 3.712 11.328v2.176H762.96c.469 6.486 3.904 9.728 10.304 9.728 1.792 0 3.541-.277 5.248-.832 1.749-.554 3.392-1.472 4.928-2.752l1.92 4.48c-1.408 1.28-3.221 2.283-5.44 3.008a21.489 21.489 0 0 1-6.72 1.088zm-.96-27.84c-2.688 0-4.821.832-6.4 2.496-1.579 1.664-2.539 3.883-2.88 6.656h17.472c-.128-2.901-.896-5.141-2.304-6.72-1.408-1.621-3.371-2.432-5.888-2.432z" fill="#FAFAFC"/></svg>